<?xml version="1.0" encoding="utf-8"?>
<!-- Generator: Adobe Illustrator 24.0.0, SVG Export Plug-In . SVG Version: 6.00 Build 0)  -->
<svg version="1.1" id="图层_1" xmlns="http://www.w3.org/2000/svg" xmlns:xlink="http://www.w3.org/1999/xlink" x="0px" y="0px"
	 viewBox="0 0 1270 283" style="enable-background:new 0 0 1270 283;" xml:space="preserve">
<style type="text/css">
	.st0{fill:#24272A;}
	.st1{clip-path:url(#SVGID_2_);}
	.st2{clip-path:url(#SVGID_4_);fill:#CE0E2D;}
	.st3{clip-path:url(#SVGID_4_);}
	.st4{clip-path:url(#SVGID_8_);}
	.st5{clip-path:url(#SVGID_10_);fill:#CE0E2D;}
	.st6{clip-path:url(#SVGID_10_);}
	.st7{clip-path:url(#SVGID_14_);}
	.st8{clip-path:url(#SVGID_16_);fill:#CE0E2D;}
	.st9{clip-path:url(#SVGID_16_);}
	.st10{clip-path:url(#SVGID_20_);}
	.st11{clip-path:url(#SVGID_22_);fill:#CE0E2D;}
	.st12{clip-path:url(#SVGID_22_);}
	.st13{clip-path:url(#SVGID_26_);}
	.st14{clip-path:url(#SVGID_28_);fill:#CE0E2D;}
	.st15{clip-path:url(#SVGID_28_);}
	.st16{clip-path:url(#SVGID_32_);}
	.st17{clip-path:url(#SVGID_34_);fill:#CE0E2D;}
	.st18{clip-path:url(#SVGID_34_);}
	.st19{clip-path:url(#SVGID_38_);}
	.st20{clip-path:url(#SVGID_40_);fill:#CE0E2D;}
	.st21{clip-path:url(#SVGID_40_);}
	.st22{clip-path:url(#SVGID_44_);}
	.st23{clip-path:url(#SVGID_46_);fill:#CE0E2D;}
	.st24{clip-path:url(#SVGID_46_);}
</style>
<title>编组 10</title>
<desc>Created with Sketch.</desc>
<g>
	<polygon class="st0" points="531.4,150 467.4,150 467.4,93.6 439,93.6 439,233.4 467.4,233.4 467.4,176.7 531.4,176.7 531.4,233.4 
		559.8,233.4 559.8,93.6 531.4,93.6 	"/>
	<path class="st0" d="M691.3,173.6c0,22.7-11.3,34.9-31.8,34.9c-20.6,0-32-12.5-32-35.8v-79h-28.4v79.9c0,39.3,21.9,61.9,60,61.9
		c38.5,0,60.5-23,60.5-63V93.6h-28.4V173.6z"/>
	<polygon class="st0" points="1019.1,189.8 987.4,93.6 964.2,93.6 932.5,189.8 901.6,93.7 871.4,93.7 920.1,233.4 943.6,233.4 
		975.4,141.6 1007.2,233.4 1030.9,233.4 1079.5,93.7 1050.1,93.7 	"/>
	<polygon class="st0" points="1130.3,173.3 1182,173.3 1182,147.8 1130.3,147.8 1130.3,119.2 1205.2,119.2 1205.2,93.7 1102.4,93.7 
		1102.4,233.3 1207.9,233.3 1207.9,207.9 1130.3,207.9 	"/>
	<rect x="1241.8" y="93.6" class="st0" width="28" height="139.6"/>
	<path class="st0" d="M839.7,204.3l12.6,29.1H882L821,94.4l-0.5-0.8h-24.8L734,233.4h29l11.9-27.1h0l0.9-2H839.7z M807.6,129
		l20.2,46.8h-0.1l1.4,3.2h-42.9l1.4-3.2h0L807.6,129z"/>
	<g>
		<g>
			<defs>
				<path id="SVGID_1_" d="M159.8,218.6c0,0,0.7-0.5,0.3-1.4h0C116.8,122.7,57.7,51,57.7,51s-32.2,30.6-29.9,61.2
					c1.2,23.2,18.6,36.9,18.6,36.9c28.1,27.4,96,61.9,111.8,69.8C158.5,219,159.3,219.2,159.8,218.6"/>
			</defs>
			<use xlink:href="#SVGID_1_"  style="overflow:visible;fill:#CE0E2D;"/>
			<clipPath id="SVGID_2_">
				<use xlink:href="#SVGID_1_"  style="overflow:visible;"/>
			</clipPath>
			<g class="st1">
				<defs>
					<rect id="SVGID_3_" x="25.5" y="51.1" width="134.8" height="168.1"/>
				</defs>
				<use xlink:href="#SVGID_3_"  style="overflow:visible;fill:#CE0E2D;"/>
				<clipPath id="SVGID_4_">
					<use xlink:href="#SVGID_3_"  style="overflow:visible;"/>
				</clipPath>
				<rect x="25.5" y="51.1" class="st2" width="134.8" height="168.1"/>
				<g class="st3">
					<defs>
						<rect id="SVGID_5_" x="25.5" y="51.1" width="134.8" height="168.1"/>
					</defs>
					<use xlink:href="#SVGID_5_"  style="overflow:visible;fill:#CE0E2D;"/>
					<clipPath id="SVGID_6_">
						<use xlink:href="#SVGID_5_"  style="overflow:visible;"/>
					</clipPath>
				</g>
			</g>
		</g>
		<g>
			<defs>
				<path id="SVGID_7_" d="M149.2,242c-0.3-1-1.5-1-1.5-1v0l-113.1,3.9c12.3,21.9,32.9,38.9,54.4,33.7c14.8-3.7,48.5-27.2,59.6-35.1
					l0,0C149.5,242.6,149.2,242,149.2,242"/>
			</defs>
			<use xlink:href="#SVGID_7_"  style="overflow:visible;fill:#CE0E2D;"/>
			<clipPath id="SVGID_8_">
				<use xlink:href="#SVGID_7_"  style="overflow:visible;"/>
			</clipPath>
			<g class="st4">
				<defs>
					<rect id="SVGID_9_" x="34.8" y="241" width="114.9" height="42.8"/>
				</defs>
				<use xlink:href="#SVGID_9_"  style="overflow:visible;fill:#CE0E2D;"/>
				<clipPath id="SVGID_10_">
					<use xlink:href="#SVGID_9_"  style="overflow:visible;"/>
				</clipPath>
				<rect x="34.8" y="241" class="st5" width="114.9" height="42.8"/>
				<g class="st6">
					<defs>
						<rect id="SVGID_11_" x="34.8" y="241" width="114.9" height="42.8"/>
					</defs>
					<use xlink:href="#SVGID_11_"  style="overflow:visible;fill:#CE0E2D;"/>
					<clipPath id="SVGID_12_">
						<use xlink:href="#SVGID_11_"  style="overflow:visible;"/>
					</clipPath>
				</g>
			</g>
		</g>
		<g>
			<defs>
				<path id="SVGID_13_" d="M151,231.9c0.6-0.9-0.4-1.7-0.4-1.7l0,0c-49.7-33.5-145.9-85-145.9-85c-8.7,27.1,3,49,3,49
					c12.3,26,35.7,33.8,35.7,33.8c10.8,4.4,21.6,4.7,21.6,4.7c1.7,0.3,67.2,0,84.8-0.1C150.5,232.6,151,231.9,151,231.9"/>
			</defs>
			<use xlink:href="#SVGID_13_"  style="overflow:visible;fill:#CE0E2D;"/>
			<clipPath id="SVGID_14_">
				<use xlink:href="#SVGID_13_"  style="overflow:visible;"/>
			</clipPath>
			<g class="st7">
				<defs>
					<rect id="SVGID_15_" x="-4" y="145" width="155.7" height="87.9"/>
				</defs>
				<use xlink:href="#SVGID_15_"  style="overflow:visible;fill:#CE0E2D;"/>
				<clipPath id="SVGID_16_">
					<use xlink:href="#SVGID_15_"  style="overflow:visible;"/>
				</clipPath>
				<rect x="-4" y="145" class="st8" width="155.7" height="87.9"/>
				<g class="st9">
					<defs>
						<rect id="SVGID_17_" x="-4" y="145" width="155.7" height="87.9"/>
					</defs>
					<use xlink:href="#SVGID_17_"  style="overflow:visible;fill:#CE0E2D;"/>
					<clipPath id="SVGID_18_">
						<use xlink:href="#SVGID_17_"  style="overflow:visible;"/>
					</clipPath>
				</g>
			</g>
		</g>
		<g>
			<defs>
				<path id="SVGID_19_" d="M158.5,2.2c-4.9,0.4-18.2,3.5-18.2,3.5c-29.9,7.7-37,34.9-37,34.9c-5.5,17.1,0.1,35.9,0.1,35.9
					c10,44.4,59.2,117.3,69.7,132.6c0.7,0.8,1.3,0.5,1.3,0.5c1.1-0.3,1.1-1.4,1.1-1.4l0,0C191.8,45.3,158.5,2.2,158.5,2.2"/>
			</defs>
			<use xlink:href="#SVGID_19_"  style="overflow:visible;fill:#CE0E2D;"/>
			<clipPath id="SVGID_20_">
				<use xlink:href="#SVGID_19_"  style="overflow:visible;"/>
			</clipPath>
			<g class="st10">
				<defs>
					<rect id="SVGID_21_" x="97.9" y="2.1" width="93.9" height="207.7"/>
				</defs>
				<use xlink:href="#SVGID_21_"  style="overflow:visible;fill:#CE0E2D;"/>
				<clipPath id="SVGID_22_">
					<use xlink:href="#SVGID_21_"  style="overflow:visible;"/>
				</clipPath>
				<rect x="97.9" y="2.1" class="st11" width="93.9" height="207.7"/>
				<g class="st12">
					<defs>
						<rect id="SVGID_23_" x="97.9" y="2.1" width="93.9" height="207.7"/>
					</defs>
					<use xlink:href="#SVGID_23_"  style="overflow:visible;fill:#CE0E2D;"/>
					<clipPath id="SVGID_24_">
						<use xlink:href="#SVGID_23_"  style="overflow:visible;"/>
					</clipPath>
				</g>
			</g>
		</g>
		<g>
			<defs>
				<path id="SVGID_25_" d="M195.9,209.5c1.1,0.4,1.6-0.6,1.6-0.6l0,0c10.8-15.7,59.7-88.2,69.7-132.5c0,0,5.4-21.4,0.2-35.9
					c0,0-7.4-27.6-37.4-34.9c0,0-8.6-2.2-17.8-3.5c0,0-33.5,43.2-17.2,206.1h0C195.1,209.3,195.9,209.5,195.9,209.5"/>
			</defs>
			<use xlink:href="#SVGID_25_"  style="overflow:visible;fill:#CE0E2D;"/>
			<clipPath id="SVGID_26_">
				<use xlink:href="#SVGID_25_"  style="overflow:visible;"/>
			</clipPath>
			<g class="st13">
				<defs>
					<rect id="SVGID_27_" x="178.7" y="2.2" width="93.9" height="207.8"/>
				</defs>
				<use xlink:href="#SVGID_27_"  style="overflow:visible;fill:#CE0E2D;"/>
				<clipPath id="SVGID_28_">
					<use xlink:href="#SVGID_27_"  style="overflow:visible;"/>
				</clipPath>
				<rect x="178.7" y="2.2" class="st14" width="93.9" height="207.8"/>
				<g class="st15">
					<defs>
						<rect id="SVGID_29_" x="178.7" y="2.2" width="93.9" height="207.8"/>
					</defs>
					<use xlink:href="#SVGID_29_"  style="overflow:visible;fill:#CE0E2D;"/>
					<clipPath id="SVGID_30_">
						<use xlink:href="#SVGID_29_"  style="overflow:visible;"/>
					</clipPath>
				</g>
			</g>
		</g>
		<g>
			<defs>
				<path id="SVGID_31_" d="M222.7,241.1c0,0-1,0.1-1.3,0.9c0,0-0.2,1,0.4,1.5l0,0c10.8,7.8,43.6,30.7,59.5,35.2
					c0,0,29.2,10,54.6-33.7L222.7,241.1L222.7,241.1z"/>
			</defs>
			<use xlink:href="#SVGID_31_"  style="overflow:visible;fill:#CE0E2D;"/>
			<clipPath id="SVGID_32_">
				<use xlink:href="#SVGID_31_"  style="overflow:visible;"/>
			</clipPath>
			<g class="st16">
				<defs>
					<rect id="SVGID_33_" x="221.2" y="241" width="114.7" height="47.6"/>
				</defs>
				<use xlink:href="#SVGID_33_"  style="overflow:visible;fill:#CE0E2D;"/>
				<clipPath id="SVGID_34_">
					<use xlink:href="#SVGID_33_"  style="overflow:visible;"/>
				</clipPath>
				<rect x="221.2" y="241" class="st17" width="114.7" height="47.6"/>
				<g class="st18">
					<defs>
						<rect id="SVGID_35_" x="221.2" y="241" width="114.7" height="47.6"/>
					</defs>
					<use xlink:href="#SVGID_35_"  style="overflow:visible;fill:#CE0E2D;"/>
					<clipPath id="SVGID_36_">
						<use xlink:href="#SVGID_35_"  style="overflow:visible;"/>
					</clipPath>
				</g>
			</g>
		</g>
		<g>
			<defs>
				<path id="SVGID_37_" d="M366,144.9c0,0-96.1,51.6-145.8,85.2l0,0c0,0-0.9,0.6-0.6,1.6c0,0,0.5,0.8,1.2,0.8v0
					c17.8,0,85.1,0.1,86.8-0.2c0,0,8.7-0.3,19.5-4.5c0,0,24-7.6,36.4-34.9C363.4,193,374.5,170.8,366,144.9"/>
			</defs>
			<use xlink:href="#SVGID_37_"  style="overflow:visible;fill:#CE0E2D;"/>
			<clipPath id="SVGID_38_">
				<use xlink:href="#SVGID_37_"  style="overflow:visible;"/>
			</clipPath>
			<g class="st19">
				<defs>
					<rect id="SVGID_39_" x="219.3" y="144.9" width="155.3" height="87.8"/>
				</defs>
				<use xlink:href="#SVGID_39_"  style="overflow:visible;fill:#CE0E2D;"/>
				<clipPath id="SVGID_40_">
					<use xlink:href="#SVGID_39_"  style="overflow:visible;"/>
				</clipPath>
				<rect x="219.3" y="144.9" class="st20" width="155.3" height="87.8"/>
				<g class="st21">
					<defs>
						<rect id="SVGID_41_" x="219.3" y="144.9" width="155.3" height="87.8"/>
					</defs>
					<use xlink:href="#SVGID_41_"  style="overflow:visible;fill:#CE0E2D;"/>
					<clipPath id="SVGID_42_">
						<use xlink:href="#SVGID_41_"  style="overflow:visible;"/>
					</clipPath>
				</g>
			</g>
		</g>
		<g>
			<defs>
				<path id="SVGID_43_" d="M211.1,218.6c0,0,0.8,0.6,1.5,0.1v0c16.2-8.1,83.6-42.4,111.5-69.6c0,0,17.7-14.2,18.6-37
					c2-31.7-29.8-61-29.8-61s-59,71.4-102.2,165.8h0C210.8,216.8,210.3,217.9,211.1,218.6"/>
			</defs>
			<use xlink:href="#SVGID_43_"  style="overflow:visible;fill:#CE0E2D;"/>
			<clipPath id="SVGID_44_">
				<use xlink:href="#SVGID_43_"  style="overflow:visible;"/>
			</clipPath>
			<g class="st22">
				<defs>
					<rect id="SVGID_45_" x="210.3" y="51" width="134.5" height="168.2"/>
				</defs>
				<use xlink:href="#SVGID_45_"  style="overflow:visible;fill:#CE0E2D;"/>
				<clipPath id="SVGID_46_">
					<use xlink:href="#SVGID_45_"  style="overflow:visible;"/>
				</clipPath>
				<rect x="210.3" y="51" class="st23" width="134.5" height="168.2"/>
				<g class="st24">
					<defs>
						<rect id="SVGID_47_" x="210.3" y="51" width="134.5" height="168.2"/>
					</defs>
					<use xlink:href="#SVGID_47_"  style="overflow:visible;fill:#CE0E2D;"/>
					<clipPath id="SVGID_48_">
						<use xlink:href="#SVGID_47_"  style="overflow:visible;"/>
					</clipPath>
				</g>
			</g>
		</g>
	</g>
</g>
</svg>
